<?xml version="1.0" standalone="no"?>
<!DOCTYPE svg PUBLIC "-//W3C//DTD SVG 20010904//EN"
 "http://www.w3.org/TR/2001/REC-SVG-20010904/DTD/svg10.dtd">
<svg version="1.0" xmlns="http://www.w3.org/2000/svg"
 width="236.000000pt" height="324.000000pt" viewBox="0 0 236.000000 324.000000"
 preserveAspectRatio="xMidYMid meet">

<g transform="translate(0.000000,324.000000) scale(0.100000,-0.100000)"
fill="#000000" stroke="none">
<path d="M1111 3089 c-74 -23 -133 -74 -173 -149 -18 -36 -23 -61 -23 -120 0
-65 4 -82 31 -130 37 -66 97 -114 166 -135 68 -20 107 -19 170 5 70 26 117 66
153 131 26 46 30 65 30 129 0 83 -22 139 -76 196 -64 66 -191 100 -278 73z"/>
<path d="M812 2480 c-54 -11 -178 -77 -250 -133 -73 -55 -119 -110 -153 -182
-25 -51 -29 -72 -29 -140 0 -112 41 -199 143 -300 147 -146 232 -179 296 -114
26 25 31 39 31 76 0 49 5 44 -139 172 -102 91 -130 154 -97 220 16 29 90 102
124 120 19 10 22 8 27 -11 3 -13 32 -135 64 -272 49 -213 56 -256 49 -295 -9
-47 -57 -330 -128 -748 -23 -131 -52 -302 -65 -380 -14 -78 -25 -164 -25 -191
0 -120 120 -194 233 -144 81 36 84 46 147 422 81 479 142 825 146 829 2 2 6 2
8 0 4 -4 65 -350 146 -829 63 -376 66 -386 147 -422 113 -50 233 24 233 143 0
26 -18 153 -40 281 -22 128 -69 404 -105 613 -35 209 -68 401 -73 426 -7 39 0
82 49 295 32 137 61 259 64 272 5 19 8 21 27 11 34 -18 108 -91 124 -120 33
-66 5 -129 -97 -220 -144 -128 -139 -123 -139 -172 0 -37 5 -51 31 -76 64 -65
150 -32 295 113 49 49 82 94 107 145 33 67 37 81 37 155 0 69 -4 90 -29 141
-53 111 -152 200 -309 278 l-85 42 -361 2 c-199 1 -381 -3 -404 -7z"/>
<path d="M693 2135 c-22 -19 -48 -50 -57 -70 -22 -45 -11 -84 39 -142 37 -43
143 -129 150 -121 6 6 -78 368 -86 368 -3 0 -24 -16 -46 -35z"/>
<path d="M1593 1988 c-24 -100 -41 -184 -38 -186 7 -8 113 78 150 121 50 58
61 97 39 142 -14 31 -88 105 -103 105 -3 0 -25 -82 -48 -182z"/>
<path d="M437 1663 c-76 -234 -136 -492 -202 -862 -37 -205 -41 -251 -25 -251
6 0 43 7 83 15 40 8 142 26 227 40 85 14 158 29 161 33 3 4 18 79 33 167 42
255 125 737 132 769 l6 28 -32 -23 c-23 -18 -44 -24 -80 -23 -40 0 -57 8 -111
46 -35 26 -84 67 -109 92 -24 25 -47 46 -51 46 -4 0 -19 -35 -32 -77z"/>
<path d="M1860 1694 c-25 -25 -74 -66 -109 -92 -54 -38 -71 -46 -111 -46 -36
-1 -57 5 -80 23 l-32 23 6 -28 c8 -37 97 -557 132 -769 14 -88 29 -163 33
-167 3 -4 98 -22 211 -42 113 -19 220 -38 238 -42 30 -6 32 -5 32 23 0 32 -56
353 -89 513 -57 273 -161 650 -180 650 -4 0 -27 -21 -51 -46z"/>
<path d="M1177 1243 c-7 -50 -83 -499 -92 -543 l-5 -25 110 0 110 0 -5 25 c-9
44 -85 493 -92 543 -3 26 -9 47 -13 47 -4 0 -10 -21 -13 -47z"/>
</g>
</svg>
